<svg width="24" height="24" viewBox="0 0 24 24" fill="none" xmlns="http://www.w3.org/2000/svg">
<path d="M9.26562 8.8778C9.48587 8.2517 9.92059 7.72376 10.4928 7.38747C11.065 7.05118 11.7377 6.92825 12.3919 7.04046C13.046 7.15266 13.6394 7.49276 14.0668 8.00051C14.4942 8.50826 14.7282 9.15089 14.7272 9.8146C14.7272 11.6882 11.9168 12.625 11.9168 12.625M11.9512 16.375H11.9637M23.25 12C23.25 18.2132 18.2132 23.25 12 23.25C5.7868 23.25 0.75 18.2132 0.75 12C0.75 5.7868 5.7868 0.75 12 0.75C18.2132 0.75 23.25 5.7868 23.25 12Z" stroke="white" stroke-width="1.5" stroke-linecap="round" stroke-linejoin="round"/>
</svg>
